<svg height="512" viewBox="0 0 512 512" width="512" xmlns="http://www.w3.org/2000/svg"><g><g fill="#57a4ff"><path d="m472 403.338q32-99.338 0-198.676a40 40 0 1 0 -52.662-52.662 841.741 841.741 0 0 0 -326.676 0 40 40 0 1 0 -52.662 52.662q-32 99.338 0 198.676a40 40 0 1 0 52.662 52.662 841.741 841.741 0 0 0 326.676 0 40 40 0 1 0 52.662-52.662z"/><path d="m176 436.162a837.975 837.975 0 0 0 208-5.988"/><path d="m280 168h32l-32 40h32"/></g><g fill="#004fac"><path d="m481.607 399.4c19.1-63.342 19.1-127.458 0-190.8a48 48 0 1 0 -66.6-65.579 853.377 853.377 0 0 0 -318.022 0 48 48 0 1 0 -66.6 65.579c-19.1 63.342-19.1 127.458 0 190.8a48 48 0 1 0 66.6 65.579 853.377 853.377 0 0 0 318.022 0 48 48 0 1 0 66.6-65.579zm-25.607 72.6a32.016 32.016 0 0 1 -29.332-19.2 7.994 7.994 0 0 0 -8.868-4.647 837.631 837.631 0 0 1 -323.6 0 7.994 7.994 0 0 0 -8.868 4.647 32 32 0 1 1 -42.132-42.132 8 8 0 0 0 4.411-9.783c-20.71-64.288-20.71-129.482 0-193.77a8 8 0 0 0 -4.411-9.783 32 32 0 1 1 42.132-42.132 8 8 0 0 0 8.868 4.647 837.631 837.631 0 0 1 323.6 0 8 8 0 0 0 8.868-4.647 32 32 0 1 1 42.132 42.132 8 8 0 0 0 -4.411 9.783c20.71 64.288 20.71 129.482 0 193.77a8 8 0 0 0 4.411 9.783 32 32 0 0 1 -12.8 61.332z"/><path d="m382.786 422.267a833.8 833.8 0 0 1 -206.022 5.933 8 8 0 0 0 -1.528 15.928q40.113 3.847 80.547 3.847a853.2 853.2 0 0 0 129.431-9.892 8 8 0 0 0 -2.428-15.814z"/><path d="m280 176h15.355l-21.6 27a8 8 0 0 0 6.245 13h32a8 8 0 0 0 0-16h-15.355l21.6-27a8 8 0 0 0 -6.245-13h-32a8 8 0 0 0 0 16z"/><path d="m352 80h15.355l-21.6 27a8 8 0 0 0 6.245 13h32a8 8 0 0 0 0-16h-15.355l21.6-27a8 8 0 0 0 -6.245-13h-32a8 8 0 0 0 0 16z"/><path d="m256 40h15.355l-21.6 27a8 8 0 0 0 6.245 13h32a8 8 0 0 0 0-16h-15.355l21.6-27a8 8 0 0 0 -6.245-13h-32a8 8 0 0 0 0 16z"/></g></g></svg>